<?xml version="1.0" encoding="utf-8"?>
<!-- Generator: Adobe Illustrator 22.0.1, SVG Export Plug-In . SVG Version: 6.00 Build 0)  -->
<svg version="1.1" id="Ebene_1" xmlns="http://www.w3.org/2000/svg" xmlns:xlink="http://www.w3.org/1999/xlink" x="0px" y="0px"
	 viewBox="0 0 363 363" style="enable-background:new 0 0 363 363;" xml:space="preserve">
<style type="text/css">
	.st0{fill:none;stroke:#ffffff;stroke-width:14;stroke-linecap:round;stroke-miterlimit:10;}
	.st1{fill:none;stroke:#FFEC00;stroke-width:35;stroke-miterlimit:10;}
	.st2{fill:none;stroke:#DD0945;stroke-width:12;stroke-miterlimit:10;}
</style>
<path class="st0" d="M191.8,168.6c8-11.3,7.8-10.7,8.5-12c2.4-4.3,21.1-28.8-4.8-61c0,0-17.4-23.9-50.7-18.3c0,0-27.3,3.2-39.6,33.4
	c-1,2.7-7,18,0.4,37.7c4.2,10.9,14.8,25.5,31.2,30.7c0,0,8.6,2.8,20.7,6.7c0,0,8.8,2.8,18.2,5.8c27.4,8.8,61.9,20,61.9,20.1
	c-0.2,0.1,12,4.1,19.6,17.5c7.3,12.9,5,27.1,1.7,34.6c-10.1,18.9-21,21.1-28.8,22.6c-8.1,1.4-29.4,1-40.9,1c-18.3,0-73.1,0-73.1,0
	s-3.4,0-5.6-2.5c-2.3-2.5-2.1-5.6-2.1-5.6s0.1-2.9,2.4-5.2c0,0,20.3-26.2,45.9-59.6"/>
<path class="st1" d="M182,182"/>
<rect x="9.8" y="9.7" class="st2" width="344.5" height="344.5"/>
</svg>
