<?xml version="1.0" encoding="utf-8"?>
<!-- Generator: Adobe Illustrator 22.0.1, SVG Export Plug-In . SVG Version: 6.00 Build 0)  -->
<svg version="1.1" id="Ebene_1" xmlns="http://www.w3.org/2000/svg" xmlns:xlink="http://www.w3.org/1999/xlink" x="0px" y="0px"
	 viewBox="0 0 234 234" style="enable-background:new 0 0 234 234;" xml:space="preserve">
<style type="text/css">
	.st0{fill:#2A3241;}
</style>
<g>
	<path class="st0" d="M105.7,24.1L91.2,48.4h29L105.7,24.1z M105.7,34.1l5.6,9.4h-11.2L105.7,34.1z"/>
	<path class="st0" d="M119.2,91.3v21.9H141V91.3H119.2z M136.3,108.5h-12.4V96h12.4V108.5z"/>
	<path class="st0" d="M16,107.7c-6.1,0-11,4.9-11,11c0,6.1,4.9,11,11,11s11-4.9,11-11C27.1,112.7,22.1,107.7,16,107.7z M16,124.6
		c-3.3,0-5.9-2.6-5.9-5.9c0-3.3,2.6-5.9,5.9-5.9s5.9,2.6,5.9,5.9C21.9,122,19.3,124.6,16,124.6z"/>
	<polygon class="st0" points="166.5,174 162.8,170.4 156.2,177.1 149.5,170.4 145.9,174 152.5,180.7 145.9,187.4 149.5,191 
		156.2,184.3 162.8,191 166.5,187.4 159.8,180.7 	"/>
	<path class="st0" d="M177.4,5v21.9h21.9V5H177.4z M194.6,22.1h-12.4V9.7h12.4V22.1z"/>
	<path class="st0" d="M207,110.6L192.5,135h29L207,110.6z M207,120.6l5.6,9.4h-11.2L207,120.6z"/>
	<path class="st0" d="M220,53.9c-6.1,0-11,4.9-11,11c0,6.1,4.9,11,11,11s11-4.9,11-11C231,58.9,226.1,53.9,220,53.9z M220,70.9
		c-3.3,0-5.9-2.6-5.9-5.9c0-3.3,2.6-5.9,5.9-5.9s5.9,2.6,5.9,5.9C225.9,68.2,223.2,70.9,220,70.9z"/>
	<polygon class="st0" points="46.5,17.4 42.9,13.8 36.2,20.5 29.5,13.8 25.9,17.4 32.6,24.1 25.9,30.8 29.5,34.4 36.2,27.7 
		42.9,34.4 46.5,30.8 39.8,24.1 	"/>
	<path class="st0" d="M69.9,137.6L55.4,162h29L69.9,137.6z M69.9,147.6l5.6,9.4H64.3L69.9,147.6z"/>
	<path class="st0" d="M83.6,204.9v21.9h21.9v-21.9H83.6z M100.8,222H88.3v-12.4h12.4V222z"/>
	<polygon class="st0" points="30.7,212.1 27,208.5 20.4,215.2 13.7,208.5 10.1,212.1 16.7,218.8 10.1,225.5 13.7,229.1 20.4,222.4 
		27,229.1 30.7,225.5 24,218.8 	"/>
	<path class="st0" d="M209.3,209.3c-6.1,0-11,4.9-11,11c0,6.1,4.9,11,11,11c6.1,0,11-4.9,11-11C220.3,214.2,215.3,209.3,209.3,209.3
		z M209.3,226.2c-3.3,0-5.9-2.6-5.9-5.9c0-3.3,2.6-5.9,5.9-5.9c3.3,0,5.9,2.6,5.9,5.9C215.1,223.5,212.5,226.2,209.3,226.2z"/>
</g>
</svg>
